<svg width="100" height="12" viewBox="0 0 100 12" fill="none" xmlns="http://www.w3.org/2000/svg">
<path d="M7.88354 9.80052H4.1053L3.44549 11.9371H0.499878L4.69443 0.500244H7.28656L11.5125 11.9371H8.55121L7.88354 9.80052ZM4.76512 7.67182H7.22372L5.99049 3.70507L4.76512 7.67182Z" fill="#8794BA"/>
<path d="M21.9125 11.9371H19.1711V7.16125H15.1101V11.9371H12.353V0.500244H15.1101V5.04041H19.1711V0.500244H21.9125V11.9371Z" fill="#8794BA"/>
<path d="M30.3016 9.80052H26.5234L25.8635 11.9371H22.9179L27.1125 0.500244H29.7046L33.9306 11.9371H30.9693L30.3016 9.80052ZM27.1832 7.67182H29.6418L28.4085 3.70507L27.1832 7.67182Z" fill="#8794BA"/>
<path d="M44.5348 0.500244V11.9371H41.7777V2.62894H39.2091L39.0206 6.47001C38.942 7.79488 38.7588 8.85268 38.4707 9.64342C38.1827 10.4341 37.7717 11.0128 37.2375 11.3794C36.7086 11.7407 35.986 11.9266 35.0695 11.9371H34.3312V9.81623L34.7161 9.77695C35.2659 9.6984 35.6639 9.36326 35.91 8.77152C36.1562 8.17454 36.3159 7.17172 36.3892 5.76307L36.5856 0.500244H44.5348Z" fill="#8794BA"/>
<path d="M52.9631 0.500244H55.7202V11.9371H52.9631V4.72621L48.855 11.9371H46.0979V0.500244H48.855V7.71895L52.9631 0.500244Z" fill="#8794BA"/>
<path d="M66.1516 2.62894H62.719V11.9371H59.9619V2.62894H56.5921V0.500244H66.1516V2.62894Z" fill="#8794BA"/>
<path d="M74.0302 0.500244H76.7872V11.9371H74.0302V4.72621L69.922 11.9371H67.1649V0.500244H69.922V7.71895L74.0302 0.500244Z" fill="#8794BA"/>
<path d="M82.5214 7.41261H81.2174V11.9371H78.4604V0.500244H81.2174V4.92259H82.2779L84.4772 0.500244H87.8156L84.6736 5.77878L88.2084 11.9371H84.9485L82.5214 7.41261Z" fill="#8794BA"/>
<path d="M95.3878 9.80052H91.6096L90.9497 11.9371H88.0041L92.1987 0.500244H94.7908L99.0168 11.9371H96.0555L95.3878 9.80052ZM92.2694 7.67182H94.728L93.4947 3.70507L92.2694 7.67182Z" fill="#8794BA"/>
</svg>
